<svg width="300" height="80" viewBox="0 0 300 80" xmlns="http://www.w3.org/2000/svg">
  <defs>
    <linearGradient id="gradRec" x1="0%" y1="0%" x2="100%" y2="100%">
      <stop offset="0%" style="stop-color:#fc7f51;stop-opacity:1" />
      <stop offset="100%" style="stop-color:#ff5722;stop-opacity:1" />
    </linearGradient>
  </defs>

  <!-- Icon Part -->
  <g transform="scale(0.12) translate(50, 50)">
      <rect x="0" y="0" width="512" height="512" rx="120" fill="#0f0f13" />
      <rect x="20" y="20" width="472" height="472" rx="100" stroke="url(#gradRec)" stroke-width="40" fill="none" />
      <g transform="translate(66, 120)" style="font-family: Arial, sans-serif; font-weight: bold;">
        <path d="M 0 0 L 220 0 L 220 50 L 60 50 L 60 110 L 200 110 L 200 160 L 60 160 L 60 220 L 220 220 L 220 270 L 0 270 Z" fill="#ffffff" />
        <path d="M 240 0 L 380 0 C 460 0 460 130 380 135 L 400 135 L 460 270 L 400 270 L 350 150 L 300 150 L 300 270 L 240 270 Z M 300 50 L 300 110 L 360 110 C 400 110 400 50 360 50 Z" fill="url(#gradRec)" />
      </g>
  </g>

  <!-- Text Part -->
  <text x="80" y="52" font-family="'Montserrat', sans-serif" font-weight="700" font-size="32" fill="#ffffff">Erick</text>
  <text x="175" y="52" font-family="'Montserrat', sans-serif" font-weight="700" font-size="32" fill="url(#gradRec)">Rendon</text>
</svg>